<?xml version="1.0" standalone="no"?>
<!DOCTYPE svg PUBLIC "-//W3C//DTD SVG 20010904//EN"
 "http://www.w3.org/TR/2001/REC-SVG-20010904/DTD/svg10.dtd">
<svg version="1.0" xmlns="http://www.w3.org/2000/svg"
 width="512.000000pt" height="512.000000pt" viewBox="0 0 512.000000 512.000000"
 preserveAspectRatio="xMidYMid meet">

<g transform="translate(0.000000,512.000000) scale(0.100000,-0.100000)"
fill="#f7f3eb" stroke="none">
<path d="M2937 4379 c-101 -11 -220 -37 -316 -68 l-86 -27 3 -300 c2 -164 5
-300 6 -301 1 -2 47 9 102 24 84 22 121 26 244 27 140 1 147 0 207 -28 147
-68 212 -201 233 -480 6 -77 10 -629 10 -1338 l0 -1208 665 0 665 0 0 320 0
320 -304 0 -304 0 -5 1028 c-4 885 -6 1042 -21 1138 -61 419 -202 665 -455
798 -163 86 -412 122 -644 95z"/>
<path d="M510 4020 l0 -320 325 0 325 0 0 -1190 0 -1190 -325 0 -325 0 0 -320
0 -320 990 0 990 0 0 320 0 320 -310 0 -310 0 0 1510 0 1510 -680 0 -680 0 0
-320z"/>
</g>
</svg>
